<svg width="405" height="383" viewBox="0 0 405 383" fill="none" xmlns="http://www.w3.org/2000/svg">
<path d="M45.6877 340.449L59.8935 352.786L97.7763 304.344L114.824 318.611L204.795 200.307L284.349 340.449L306.132 316.379L345.909 381.69H12.5403L45.6877 340.449V340.449Z" fill="#F4F4F4"/>
<path d="M357.856 381.69H0.592285" stroke="black" stroke-width="1.5"/>
<path d="M395.965 380.017C395.965 380.017 399.629 373.536 390.33 372.127C384.804 371.273 379.15 371.955 373.986 374.099C373.986 374.099 380.467 366.209 370.323 362.828C360.179 359.446 349.752 367.336 349.752 367.336C349.752 367.336 359.897 348.457 352.007 347.048C344.117 345.639 339.89 353.811 339.89 353.811C339.89 353.811 340.735 330.422 324.392 329.859C308.048 329.295 309.739 359.728 309.739 359.728C309.739 359.728 302.694 346.202 290.859 345.639C279.024 345.075 284.941 368.296 284.941 368.296C284.941 368.296 282.687 362.828 274.797 362.264C266.907 361.701 267.471 368.314 267.471 368.314C267.471 368.314 257.326 354.092 246.055 354.938C234.783 355.783 239.574 369.873 239.574 369.873C228.02 369.027 225.484 381.69 225.484 381.69H404.137L395.965 380.017Z" fill="black"/>
<path d="M283.14 15.8993V36.4976L308.657 42.7692V8.00841L283.14 1.73682V15.8993V15.8993Z" fill="#EDEEEF"/>
<path d="M264.425 135.375C264.425 135.375 199.74 246.231 178.094 355.904L170.116 360.596L208.266 373.237C208.266 373.237 292.776 245.769 297.827 229.587C302.877 213.405 294.219 135.375 294.219 135.375" fill="#FBB041"/>
<path d="M281.177 185.518C281.177 185.518 270.797 238.738 273.64 271.969C284.53 254.452 293.374 239.576 296.671 232.436L281.177 185.518Z" fill="black"/>
<path d="M343.361 154.776L281.304 139.524C281.304 139.524 277.128 290.381 301.63 372.311L297.554 380.487H338.232C338.232 380.487 346.325 187.782 343.361 154.776Z" fill="#FBB041"/>
<path d="M281.304 139.524C281.304 139.524 277.128 290.381 301.63 372.311" stroke="black" stroke-width="1.5"/>
<path d="M317.023 165.222C317.023 165.222 323.998 190.717 335.784 196.008" stroke="black" stroke-width="1.5"/>
<path d="M297.555 23.0259C297.931 23.0259 298.237 22.7205 298.237 22.3436C298.237 21.9668 297.931 21.6614 297.555 21.6614C297.178 21.6614 296.872 21.9668 296.872 22.3436C296.872 22.7205 297.178 23.0259 297.555 23.0259Z" fill="black"/>
<path d="M287.075 23.0259C287.452 23.0259 287.758 22.7205 287.758 22.3436C287.758 21.9668 287.452 21.6614 287.075 21.6614C286.699 21.6614 286.393 21.9668 286.393 22.3436C286.393 22.7205 286.699 23.0259 287.075 23.0259Z" fill="black"/>
<path d="M290.149 26.4138V15.8994H284.882" stroke="black" stroke-width="1.5"/>
<path d="M298.84 15.8993H293.573" stroke="black" stroke-width="1.5"/>
<path d="M306.977 24.9378C307.922 24.9378 308.829 24.5621 309.498 23.8933C310.167 23.2245 310.543 22.3174 310.543 21.3716" stroke="black" stroke-width="1.5"/>
<path d="M303.893 41.5981L308.657 42.7691" stroke="black" stroke-width="1.5"/>
<path d="M283.14 21.6614C283.14 21.6614 278.018 36.6804 284.882 41.5982C291.747 46.516 312.157 43.6508 306.621 23.4944" stroke="black" stroke-width="1.5"/>
<path d="M286.172 26.6909C285.979 26.9979 285.962 27.3837 286.127 27.7064C286.292 28.0292 286.615 28.2413 286.976 28.2648C288.452 28.5943 290.682 25.6898 292.612 27.271C292.612 27.271 293.045 25.0394 297.851 26.3742C302.656 27.709 301.007 24.5361 301.007 24.5361" stroke="black" stroke-width="1.5"/>
<path d="M292.039 29.2764C293.85 30.1095 295.993 29.3167 296.826 27.5056" stroke="#FBB041" stroke-width="1.5" stroke-linecap="round" stroke-linejoin="round"/>
<path d="M281.304 8.64209C281.304 8.64209 283.034 16.0833 298.84 11.6624C298.84 11.6624 299.796 15.7152 302.516 15.8993C305.237 16.0834 305.123 18.8039 305.123 18.8039" stroke="black" stroke-width="1.5"/>
<path d="M283.14 15.8993C283.14 15.8993 266.641 1.66695 286.02 0.945389C305.398 0.223824 315.89 6.23265 308.76 19.5035" stroke="black" stroke-width="1.5"/>
<path d="M264.425 79.6547V135.375L343.361 154.776V92.7188C343.361 70.7142 328.339 51.5526 306.97 46.3006H306.97C296.722 43.7819 285.886 46.1137 277.581 52.6244C269.276 59.1351 264.425 69.102 264.425 79.6547L264.425 79.6547Z" fill="#EDEEEF"/>
<path d="M318.611 50.8413C318.611 50.8413 366.09 78.8744 364.646 125.536C363.203 172.197 329.53 190.957 329.53 190.957" stroke="black" stroke-width="1.5"/>
<path d="M310.543 97.9556L335.784 128.742L317.656 167.33" stroke="black" stroke-width="1.5"/>
<path d="M319.255 163.928L335.784 128.743L316.428 105.134V105.134C316.428 105.134 328.221 140.426 319.255 163.928Z" fill="black"/>
<path d="M273.147 56.7807L239.319 83.572C239.319 83.572 200.327 33.8873 191.711 31.2511C183.096 28.6149 172.609 34.1373 172.609 34.1373V37.4002L182.584 39.2139C182.584 39.2139 181.114 50.8242 187.462 56.2653C187.462 56.2653 207.142 128.196 236.689 128.422C256.893 128.576 264.425 122.97 264.425 122.97" stroke="black" stroke-width="1.5"/>
</svg>
