<svg width="360" height="791" viewBox="0 0 360 791" fill="none" xmlns="http://www.w3.org/2000/svg">
<path d="M78.0899 769.001H106.376V757.033H135.277V742.889L156.8 723.849H189.39V668.906H231.82V600.906L285.318 648.234V738.537H313.604V778.538H325.288V767.369H346.195V789.708H63.9464V781.513L78.0899 769.001V769.001Z" fill="#F4F4F4"/>
<rect width="3.86447" height="3.41874" transform="matrix(-1 0 0 1 228.549 691.888)" fill="white"/>
<rect width="3.86447" height="3.41874" transform="matrix(-1 0 0 1 219.146 691.888)" fill="white"/>
<rect width="3.86447" height="3.41874" transform="matrix(-1 0 0 1 209.742 691.888)" fill="white"/>
<rect width="3.86447" height="3.41874" transform="matrix(-1 0 0 1 228.549 701.106)" fill="white"/>
<rect width="3.86447" height="3.41874" transform="matrix(-1 0 0 1 219.146 701.106)" fill="white"/>
<rect width="3.86447" height="3.41874" transform="matrix(-1 0 0 1 209.742 701.106)" fill="white"/>
<rect width="3.86447" height="3.41874" transform="matrix(-1 0 0 1 228.549 710.324)" fill="white"/>
<rect width="3.86447" height="3.41874" transform="matrix(-1 0 0 1 219.146 710.324)" fill="white"/>
<rect width="3.86447" height="3.41874" transform="matrix(-1 0 0 1 209.742 710.324)" fill="white"/>
<rect width="3.86447" height="3.41874" transform="matrix(-1 0 0 1 228.549 719.542)" fill="white"/>
<rect width="3.86447" height="3.41874" transform="matrix(-1 0 0 1 219.146 719.542)" fill="white"/>
<rect width="3.86447" height="3.41874" transform="matrix(-1 0 0 1 209.742 719.542)" fill="white"/>
<rect width="3.86447" height="3.41874" transform="matrix(-1 0 0 1 228.549 728.759)" fill="white"/>
<rect width="3.86447" height="3.41874" transform="matrix(-1 0 0 1 219.146 728.759)" fill="white"/>
<rect width="3.86447" height="3.41874" transform="matrix(-1 0 0 1 209.742 728.759)" fill="white"/>
<rect width="3.86447" height="3.41874" transform="matrix(-1 0 0 1 228.549 737.977)" fill="white"/>
<rect width="3.86447" height="3.41874" transform="matrix(-1 0 0 1 219.146 737.977)" fill="white"/>
<rect width="3.86447" height="3.41874" transform="matrix(-1 0 0 1 209.742 737.977)" fill="white"/>
<rect width="3.86447" height="3.41874" transform="matrix(-1 0 0 1 228.549 747.195)" fill="white"/>
<rect width="3.86447" height="3.41874" transform="matrix(-1 0 0 1 219.146 747.195)" fill="white"/>
<rect width="3.86447" height="3.41874" transform="matrix(-1 0 0 1 209.742 747.195)" fill="white"/>
<rect width="3.86447" height="3.41874" transform="matrix(-1 0 0 1 228.549 756.412)" fill="white"/>
<rect width="3.86447" height="3.41874" transform="matrix(-1 0 0 1 219.146 756.412)" fill="white"/>
<rect width="3.86447" height="3.41874" transform="matrix(-1 0 0 1 209.742 756.412)" fill="white"/>
<path d="M177.879 445.883V454.24C177.879 460.702 173.468 466.329 167.193 467.871L153.895 471.139V438.466L164.952 435.748C168.066 434.983 171.359 435.692 173.882 437.67C176.405 439.648 177.879 442.677 177.879 445.883L177.879 445.883Z" fill="#EDEEEF"/>
<path d="M164.331 452.582C163.977 452.582 163.69 452.295 163.69 451.941C163.69 451.586 163.977 451.299 164.331 451.299C164.685 451.299 164.972 451.586 164.972 451.941C164.972 452.295 164.685 452.582 164.331 452.582Z" fill="black"/>
<path d="M155.475 454.379C154.586 454.379 153.733 454.026 153.104 453.397C152.476 452.768 152.123 451.916 152.123 451.027" stroke="black" stroke-width="1.5"/>
<path d="M168.584 456.921C167.717 457.788 166.312 457.788 165.445 456.921" stroke="#FBB041" stroke-width="1.5" stroke-linecap="round" stroke-linejoin="round"/>
<path d="M126.858 505.81V558.185L201.054 576.421V518.09C201.054 497.406 186.933 479.396 166.848 474.459H166.848C157.216 472.091 147.03 474.283 139.224 480.403C131.418 486.523 126.858 495.891 126.858 505.81L126.858 505.81Z" fill="#FBB041"/>
<path d="M168.584 467.449C168.584 467.449 166.23 477.607 173.02 481.71C174.111 482.386 174.776 483.576 174.78 484.859C174.844 490 175.956 501.883 184.971 500.277C192.338 498.964 190.233 486.383 187.79 477.564C186.26 472.052 185.634 466.328 185.938 460.616C186.584 448.595 184.497 428.028 162.167 430.375C158.854 430.681 155.659 431.76 152.838 433.525C147.062 437.243 140.613 445.515 153.895 461.692" stroke="black" stroke-width="1.5"/>
<path d="M177.879 448.881C177.879 448.881 162.74 451.82 160.404 442.551C160.404 442.551 159.236 449.117 155.412 450.469" stroke="black" stroke-width="1.5"/>
<path d="M155.766 474.654C155.766 474.654 124.718 472.846 106.33 481.889L117.182 449.266C117.182 449.266 127.431 441.798 120.196 440.592C120.196 440.592 123.21 432.453 121.1 432.755C118.99 433.056 80.1048 457.605 77.0905 488.653C74.0761 519.701 126.858 518.966 126.858 518.966" stroke="black" stroke-width="1.5"/>
<path d="M174.181 452.582C173.827 452.582 173.54 452.295 173.54 451.941C173.54 451.586 173.827 451.299 174.181 451.299C174.535 451.299 174.822 451.586 174.822 451.941C174.822 452.295 174.535 452.582 174.181 452.582Z" fill="black"/>
<path d="M171.291 455.766V445.883" stroke="black" stroke-width="1.5"/>
<path d="M94.1348 238.681C133.824 238.681 165.999 270.856 165.999 310.545C165.999 350.235 133.824 382.409 94.1348 382.409C54.4453 382.409 22.2706 350.235 22.2706 310.545H94.1348V238.681Z" fill="#EDEEEF"/>
<path d="M165.999 310.545C165.999 350.235 133.824 382.409 94.1348 382.409C54.4453 382.409 22.2706 350.235 22.2706 310.545" stroke="black" stroke-width="1.5"/>
<path d="M94.1353 216.947V310.545H0.537106C0.537106 285.721 10.3983 261.914 27.9514 244.361C45.5044 226.808 69.3115 216.947 94.1353 216.947Z" fill="#FBB041"/>
<rect width="33.4223" height="33.4223" transform="matrix(1 0 0 -1 13.4175 454.045)" fill="#FBB041"/>
<path d="M4.25415 423.142L30.1288 397.267L56.0034 423.142H4.25415V423.142Z" fill="#FBB041"/>
<rect width="33.4223" height="33.4223" transform="matrix(1 0 0 -1 13.4175 524.973)" fill="#EDEEEF"/>
<path d="M4.25415 494.07L30.1288 468.195L56.0034 494.07H4.25415V494.07Z" fill="#EDEEEF"/>
<path d="M155.475 450.947V454.379C154.586 454.379 153.733 454.026 153.104 453.397C152.476 452.768 152.123 451.916 152.123 451.027C152.123 450.924 152.127 450.822 152.136 450.722C152.324 448.64 155.475 448.857 155.475 450.947Z" fill="#EDEEEF"/>
<path d="M359.724 789.708H50.4181" stroke="black" stroke-width="1.5"/>
<path d="M126.858 558.185C126.858 558.185 61.0179 589.972 15.5785 657.114H1.33627L29.1425 688.989L104.096 633.543C104.096 633.543 158.352 625.366 174.629 613.197C190.906 601.029 164.972 555.225 164.972 555.225" fill="#E2E2E2"/>
<path d="M137.978 557.075L190.92 553.448L200.547 557.369L205.071 788.577H155.897L161.096 779.26L137.978 557.075V557.075Z" fill="#EDEEEF"/>
<path d="M190.065 488.653C190.065 488.653 248.609 544.349 237.305 576.421C226.001 608.493 161.515 561.468 163.69 547.452L165.887 540.643C165.887 540.643 157.234 528.461 161.097 530.722C164.96 532.983 199.474 546.999 199.474 546.999L187.568 532.078" stroke="black" stroke-width="1.5"/>
<path d="M184.438 2.4986C206.599 2.45922 224.595 20.3921 224.635 42.5528L144.383 42.6956C144.344 20.5348 162.277 2.53801 184.438 2.4986V2.4986Z" fill="#EDEEEF"/>
<path d="M100.849 19.8963C113.483 19.8738 123.744 30.0979 123.766 42.7323L78.0126 42.8137C77.9902 30.1792 88.2142 19.9188 100.849 19.8963V19.8963Z" fill="#EDEEEF"/>
<path d="M144.309 0.735663C167.483 0.694483 186.303 19.4472 186.344 42.621L102.424 42.7703C102.383 19.5964 121.135 0.776887 144.309 0.735663V0.735663Z" fill="#EDEEEF"/>
<path d="M232.008 42.5398L67.0656 42.8333" stroke="black" stroke-width="1.5"/>
<path d="M88.9137 106.121C78.7548 106.103 70.5047 114.324 70.4866 124.483L107.275 124.548C107.293 114.389 99.0726 106.139 88.9137 106.121V106.121Z" fill="#EDEEEF"/>
<path d="M127.233 114.097C121.441 114.086 116.737 118.773 116.727 124.565L137.701 124.603C137.711 118.811 133.025 114.107 127.233 114.097V114.097Z" fill="#EDEEEF"/>
<path d="M107.31 105.313C96.6863 105.294 88.059 113.891 88.0401 124.514L126.511 124.583C126.53 113.959 117.933 105.332 107.31 105.313V105.313Z" fill="#EDEEEF"/>
<path d="M67.1067 124.477L142.72 124.611" stroke="black" stroke-width="1.5"/>
</svg>
