<svg width="20" height="23" viewBox="0 0 20 23" fill="none" xmlns="http://www.w3.org/2000/svg">
<path d="M18.6055 3.58594L16.4141 1.39453C16.0703 1.05078 15.4258 0.75 14.9531 0.75H7.5625C6.40234 0.75 5.5 1.69531 5.5 2.8125V4.875H2.0625C0.902344 4.875 0 5.82031 0 6.9375V20.6875C0 21.8477 0.902344 22.75 2.0625 22.75H11.6875C12.8047 22.75 13.75 21.8477 13.75 20.6875V18.625H17.1875C18.3047 18.625 19.25 17.7227 19.25 16.5625V5.04688C19.25 4.57422 18.9492 3.92969 18.6055 3.58594ZM11.4297 20.6875H2.32031C2.14844 20.6875 2.0625 20.6016 2.0625 20.4297V7.19531C2.0625 7.06641 2.14844 6.9375 2.32031 6.9375H5.5V16.5625C5.5 17.7227 6.40234 18.625 7.5625 18.625H11.6875V20.4297C11.6875 20.6016 11.5586 20.6875 11.4297 20.6875ZM16.9297 16.5625H7.82031C7.64844 16.5625 7.5625 16.4766 7.5625 16.3047V3.07031C7.5625 2.94141 7.64844 2.8125 7.82031 2.8125H12.375V6.59375C12.375 7.19531 12.8047 7.625 13.4062 7.625H17.1875V16.3047C17.1875 16.4766 17.0586 16.5625 16.9297 16.5625ZM17.1875 5.5625H14.4375V2.8125H14.8242C14.9102 2.8125 14.9531 2.85547 14.9961 2.89844L17.1016 5.00391C17.1445 5.04688 17.1875 5.08984 17.1875 5.17578V5.5625Z" fill="#FBB041"/>
</svg>
