<svg width="324" height="216" viewBox="0 0 324 216" fill="none" xmlns="http://www.w3.org/2000/svg">
<path d="M270.379 79.8489H228.777" stroke="black" stroke-width="1.5"/>
<path d="M270.379 88.6316H228.777" stroke="black" stroke-width="1.5"/>
<path d="M270.379 97.8764H228.777" stroke="black" stroke-width="1.5"/>
<path d="M270.379 106.197H249.116" stroke="black" stroke-width="1.5"/>
<path d="M324 0.3423V130.696H223.23V36.2486L259.376 0.3423H324Z" fill="#EDEEEF"/>
<path d="M324 130.696H223.23V36.3976" stroke="black" stroke-width="1.5"/>
<path d="M223.231 36.3976L259.286 0.3423V36.3976H223.231Z" fill="#FBB041"/>
<path d="M177.35 203.324H161.679V196.694H145.667V188.858L133.743 178.309H115.687V147.869H92.1799V110.196L62.5408 136.417V186.447H46.8695V208.608H40.3965V202.42H28.8135V214.797H185.186V210.256L177.35 203.324Z" fill="#F4F4F4"/>
<path d="M21.3181 214.796H192.68" stroke="black" stroke-width="1.5"/>
<rect x="65.7922" y="143.222" width="2.141" height="1.89406" fill="white"/>
<rect x="71.002" y="143.222" width="2.141" height="1.89406" fill="white"/>
<rect x="76.2117" y="143.222" width="2.141" height="1.89406" fill="white"/>
<rect x="65.7922" y="148.328" width="2.141" height="1.89406" fill="white"/>
<rect x="71.002" y="148.328" width="2.141" height="1.89406" fill="white"/>
<rect x="76.2117" y="148.328" width="2.141" height="1.89406" fill="white"/>
<rect x="65.7922" y="153.435" width="2.141" height="1.89406" fill="white"/>
<rect x="71.002" y="153.435" width="2.141" height="1.89406" fill="white"/>
<rect x="76.2117" y="153.435" width="2.141" height="1.89406" fill="white"/>
<rect x="65.7922" y="158.542" width="2.141" height="1.89406" fill="white"/>
<rect x="71.002" y="158.542" width="2.141" height="1.89406" fill="white"/>
<rect x="76.2117" y="158.542" width="2.141" height="1.89406" fill="white"/>
<rect x="65.7922" y="163.649" width="2.141" height="1.89406" fill="white"/>
<rect x="71.002" y="163.649" width="2.141" height="1.89406" fill="white"/>
<rect x="76.2117" y="163.649" width="2.141" height="1.89406" fill="white"/>
<rect x="65.7922" y="168.756" width="2.141" height="1.89406" fill="white"/>
<rect x="71.002" y="168.756" width="2.141" height="1.89406" fill="white"/>
<rect x="76.2117" y="168.756" width="2.141" height="1.89406" fill="white"/>
<rect x="65.7922" y="173.863" width="2.141" height="1.89406" fill="white"/>
<rect x="71.002" y="173.863" width="2.141" height="1.89406" fill="white"/>
<rect x="76.2117" y="173.863" width="2.141" height="1.89406" fill="white"/>
<rect x="65.7922" y="178.969" width="2.141" height="1.89406" fill="white"/>
<rect x="71.002" y="178.969" width="2.141" height="1.89406" fill="white"/>
<rect x="76.2117" y="178.969" width="2.141" height="1.89406" fill="white"/>
<rect x="65.7922" y="184.076" width="2.141" height="1.89406" fill="white"/>
<rect x="71.002" y="184.076" width="2.141" height="1.89406" fill="white"/>
<rect x="76.2117" y="184.076" width="2.141" height="1.89406" fill="white"/>
<rect x="65.7922" y="158.713" width="2.141" height="1.89406" fill="white"/>
<rect x="71.002" y="158.713" width="2.141" height="1.89406" fill="white"/>
<rect x="76.2117" y="158.713" width="2.141" height="1.89406" fill="white"/>
<rect x="65.7922" y="163.82" width="2.141" height="1.89406" fill="white"/>
<rect x="71.002" y="163.82" width="2.141" height="1.89406" fill="white"/>
<rect x="76.2117" y="163.82" width="2.141" height="1.89406" fill="white"/>
<rect x="65.7922" y="168.927" width="2.141" height="1.89406" fill="white"/>
<rect x="71.002" y="168.927" width="2.141" height="1.89406" fill="white"/>
<rect x="76.2117" y="168.927" width="2.141" height="1.89406" fill="white"/>
<rect x="65.7922" y="174.034" width="2.141" height="1.89406" fill="white"/>
<rect x="71.002" y="174.034" width="2.141" height="1.89406" fill="white"/>
<rect x="76.2117" y="174.034" width="2.141" height="1.89406" fill="white"/>
<rect x="65.7922" y="179.141" width="2.141" height="1.89406" fill="white"/>
<rect x="71.002" y="179.141" width="2.141" height="1.89406" fill="white"/>
<rect x="76.2117" y="179.141" width="2.141" height="1.89406" fill="white"/>
<rect x="65.7922" y="184.247" width="2.141" height="1.89406" fill="white"/>
<rect x="71.002" y="184.247" width="2.141" height="1.89406" fill="white"/>
<rect x="76.2117" y="184.247" width="2.141" height="1.89406" fill="white"/>
<rect x="65.7922" y="189.354" width="2.141" height="1.89406" fill="white"/>
<rect x="71.002" y="189.354" width="2.141" height="1.89406" fill="white"/>
<rect x="76.2117" y="189.354" width="2.141" height="1.89406" fill="white"/>
<rect x="65.7922" y="194.461" width="2.141" height="1.89406" fill="white"/>
<rect x="71.002" y="194.461" width="2.141" height="1.89406" fill="white"/>
<rect x="76.2117" y="194.461" width="2.141" height="1.89406" fill="white"/>
<rect x="65.7922" y="199.568" width="2.141" height="1.89406" fill="white"/>
<rect x="71.002" y="199.568" width="2.141" height="1.89406" fill="white"/>
<rect x="76.2117" y="199.568" width="2.141" height="1.89406" fill="white"/>
<path d="M138.958 89.6287L119.004 86.5274C119.004 86.5274 104.302 156.676 112.192 209.008L109.865 214.17H136.301L143.807 134.346L138.958 89.6287Z" fill="#E2E2E2"/>
<path d="M125.689 88.1704C125.689 88.1704 120.632 170.708 134.915 209.787L131.932 214.17H157.335C157.335 214.17 160.111 109.187 160.111 86.5274L125.689 88.1704Z" fill="#EDEEEF"/>
<path d="M125.689 88.1704C125.689 88.1704 120.632 170.708 134.915 209.787L131.932 214.17" stroke="black" stroke-width="1.5"/>
<path d="M143.808 24.3099V35.0365L130.519 38.3024V20.2006L143.808 16.9347V24.3099Z" fill="#EDEEEF"/>
<path d="M136.301 28.021C136.498 28.021 136.657 27.862 136.657 27.6657C136.657 27.4695 136.498 27.3105 136.301 27.3105C136.105 27.3105 135.946 27.4695 135.946 27.6657C135.946 27.862 136.105 28.021 136.301 28.021Z" fill="black"/>
<path d="M141.758 28.021C141.955 28.021 142.114 27.862 142.114 27.6657C142.114 27.4695 141.955 27.3105 141.758 27.3105C141.562 27.3105 141.403 27.4695 141.403 27.6657C141.403 27.862 141.562 28.021 141.758 28.021Z" fill="black"/>
<path d="M140.157 29.7853V24.3098H142.9" stroke="black" stroke-width="1.5"/>
<path d="M135.632 24.3099H138.375" stroke="black" stroke-width="1.5"/>
<path d="M131.394 27.1153V29.0167C130.369 29.0167 129.537 28.1852 129.537 27.1596C129.537 27.1026 129.54 27.0462 129.545 26.9905C129.649 25.8373 131.394 25.9574 131.394 27.1153Z" fill="#EDEEEF"/>
<path d="M131.394 29.0167C130.369 29.0167 129.537 28.1853 129.537 27.1596" stroke="black" stroke-width="1.5"/>
<path d="M138.958 31.135C137.919 31.135 137.078 30.2935 137.078 29.2554" stroke="#FBB041" stroke-width="1.5" stroke-linecap="round" stroke-linejoin="round"/>
<path d="M143.807 35.0364L130.519 38.3024" stroke="black" stroke-width="1.5"/>
<path d="M140.157 29.7896L138.958 30.0845" stroke="black" stroke-width="1.5" stroke-linecap="round"/>
<path d="M119.005 57.5107V86.5274L160.111 96.6306V64.3139C160.111 52.8549 152.288 42.8764 141.16 40.1414H141.16C135.823 38.8298 130.18 40.0441 125.855 43.4346C121.531 46.8251 119.005 52.0154 119.005 57.5107L119.005 57.5107Z" fill="#FBB041"/>
<path d="M143.808 23.4133C143.808 22.9613 148.713 14.9451 136.657 14.7781C124.6 14.6111 130.466 26.1838 130.466 26.1838" stroke="black" stroke-width="1.5"/>
<path d="M131.395 24.8192C131.395 24.8192 133.159 22.1889 133.284 21.1243C133.284 21.1243 141.91 21.2495 143.327 19.2455" stroke="black" stroke-width="1.5"/>
<path d="M129.661 48.2882L123.765 78.991L125.936 84.669L131.394 79.993L131.03 48.5127L132.95 45.7571H128.357L129.661 48.2882Z" fill="black"/>
<path d="M151.809 45.7572C151.809 45.7572 200.42 93.0191 148.064 122.829L142.466 114.062L153.826 84.6689L142.901 69.4717" stroke="black" stroke-width="1.5"/>
<path d="M148.064 122.829L137.186 105.795" stroke="black" stroke-width="1.5"/>
<path d="M122.193 47.3074C122.193 47.3074 98.3353 84.3047 114.641 112.376" stroke="black" stroke-width="1.5"/>
<path d="M240.143 77.7668L244.703 73.2068L267.967 96.4713L263.408 101.031L240.143 77.7668Z" fill="#FBB041"/>
<path d="M309.333 45.9862L313.892 50.5461L263.407 101.031L258.847 96.4713L309.333 45.9862Z" fill="#FBB041"/>
<path d="M16.5875 4.87597C9.32575 4.86306 3.42846 10.7394 3.41553 18.0012L29.7127 18.0479C29.7256 10.7862 23.8493 4.88889 16.5875 4.87597Z" fill="#EDEEEF"/>
<path d="M43.9794 10.5769C39.8393 10.5696 36.4771 13.9198 36.4697 18.06L51.4625 18.0866C51.466 16.0985 50.6796 14.1903 49.2763 12.782C47.8729 11.3736 45.9676 10.5805 43.9794 10.5769Z" fill="#EDEEEF"/>
<path d="M29.7373 4.29826C22.1435 4.28476 15.9766 10.4298 15.9631 18.0235L43.4625 18.0724C43.476 10.4787 37.331 4.31176 29.7373 4.29826Z" fill="#EDEEEF"/>
<path d="M1 17.9969L55.0494 18.093" stroke="black" stroke-width="1.5"/>
<path d="M43.2698 33.6904C49.2889 33.6797 54.1771 38.5505 54.1878 44.5696L32.3906 44.6084C32.3799 38.5893 37.2507 33.7011 43.2698 33.6904Z" fill="#EDEEEF"/>
<path d="M20.5658 38.4158C23.9975 38.4097 26.7843 41.1867 26.7904 44.6183L14.3633 44.6405C14.3604 42.9925 15.0122 41.4109 16.1754 40.2436C17.3386 39.0762 18.9179 38.4188 20.5658 38.4158Z" fill="#EDEEEF"/>
<path d="M32.3702 33.2116C38.6645 33.2004 43.7761 38.2938 43.7873 44.5881L20.9937 44.6286C20.9825 38.3344 26.0759 33.2228 32.3702 33.2116Z" fill="#EDEEEF"/>
<path d="M56.1902 44.5661L11.3899 44.6458" stroke="black" stroke-width="1.5"/>
<path d="M234.858 160.173C233.103 158.56 231.767 156.544 230.966 154.299C228.976 148.803 223.757 145.142 217.912 145.142C212.067 145.142 206.848 148.803 204.858 154.299C204.057 156.544 202.721 158.56 200.966 160.173C196.394 164.342 195.133 171.034 197.875 176.581C200.616 182.129 206.698 185.192 212.787 184.092C216.176 183.48 219.648 183.48 223.037 184.092C229.128 185.197 235.215 182.135 237.957 176.585C240.7 171.036 239.436 164.34 234.858 160.173H234.858Z" fill="#FBB041"/>
<path d="M212.787 184.092C216.176 183.48 219.647 183.48 223.037 184.092C227.085 184.823 231.248 183.721 234.406 181.085C237.564 178.449 239.39 174.548 239.394 170.435" stroke="black" stroke-width="1.5"/>
<path d="M190.115 214.796H245.709" stroke="black" stroke-width="1.5"/>
<path d="M217.912 174.461V214.796" stroke="black" stroke-width="1.5"/>
<path d="M223.8 168.574L217.912 174.462L212.024 168.574" stroke="black" stroke-width="1.5"/>
<path d="M194.66 184.256C193.679 183.354 192.932 182.227 192.484 180.972C191.372 177.899 188.454 175.852 185.185 175.852C181.917 175.852 178.999 177.899 177.887 180.972C177.439 182.227 176.692 183.354 175.711 184.256C173.155 186.587 172.45 190.329 173.982 193.43C175.515 196.531 178.916 198.244 182.32 197.629C184.215 197.287 186.156 197.287 188.051 197.629C191.456 198.247 194.859 196.535 196.393 193.432C197.926 190.329 197.22 186.586 194.66 184.256Z" fill="#FBB041"/>
<path d="M182.32 197.629C184.215 197.287 186.156 197.287 188.051 197.629C190.314 198.038 192.642 197.422 194.407 195.948C196.173 194.474 197.194 192.293 197.196 189.994" stroke="black" stroke-width="1.5"/>
<path d="M185.186 192.245V214.796" stroke="black" stroke-width="1.5"/>
<path d="M188.478 188.953L185.186 192.245L181.894 188.953" stroke="black" stroke-width="1.5"/>
</svg>
