<svg width="400" height="259" viewBox="0 0 400 259" fill="none" xmlns="http://www.w3.org/2000/svg">
<path d="M262.583 257.993H50.049" stroke="black" stroke-width="1.5"/>
<path d="M184.225 241.691H164.788V233.467H144.929V223.748L130.14 210.665H107.746V172.912H78.591V126.187L41.8307 158.707V220.758H22.3943V248.244H14.366V240.569H0V255.919H193.943V250.288L184.225 241.691Z" fill="#F4F4F4"/>
<rect width="2.6554" height="2.34913" transform="matrix(-1 0 0 1 96.5784 184.444)" fill="white"/>
<rect width="2.6554" height="2.34913" transform="matrix(-1 0 0 1 90.1168 184.444)" fill="white"/>
<rect width="2.6554" height="2.34913" transform="matrix(-1 0 0 1 83.6554 184.444)" fill="white"/>
<rect width="2.6554" height="2.34913" transform="matrix(-1 0 0 1 96.5784 190.778)" fill="white"/>
<rect width="2.6554" height="2.34913" transform="matrix(-1 0 0 1 90.1168 190.778)" fill="white"/>
<rect width="2.6554" height="2.34913" transform="matrix(-1 0 0 1 83.6554 190.778)" fill="white"/>
<rect width="2.6554" height="2.34913" transform="matrix(-1 0 0 1 96.5784 197.111)" fill="white"/>
<rect width="2.6554" height="2.34913" transform="matrix(-1 0 0 1 90.1168 197.111)" fill="white"/>
<rect width="2.6554" height="2.34913" transform="matrix(-1 0 0 1 83.6554 197.111)" fill="white"/>
<rect width="2.6554" height="2.34913" transform="matrix(-1 0 0 1 96.5784 203.445)" fill="white"/>
<rect width="2.6554" height="2.34913" transform="matrix(-1 0 0 1 90.1168 203.445)" fill="white"/>
<rect width="2.6554" height="2.34913" transform="matrix(-1 0 0 1 83.6554 203.445)" fill="white"/>
<rect width="2.6554" height="2.34913" transform="matrix(-1 0 0 1 96.5784 209.779)" fill="white"/>
<rect width="2.6554" height="2.34913" transform="matrix(-1 0 0 1 90.1168 209.779)" fill="white"/>
<rect width="2.6554" height="2.34913" transform="matrix(-1 0 0 1 83.6554 209.779)" fill="white"/>
<rect width="2.6554" height="2.34913" transform="matrix(-1 0 0 1 96.5784 216.113)" fill="white"/>
<rect width="2.6554" height="2.34913" transform="matrix(-1 0 0 1 90.1168 216.113)" fill="white"/>
<rect width="2.6554" height="2.34913" transform="matrix(-1 0 0 1 83.6554 216.113)" fill="white"/>
<rect width="2.6554" height="2.34913" transform="matrix(-1 0 0 1 96.5784 222.447)" fill="white"/>
<rect width="2.6554" height="2.34913" transform="matrix(-1 0 0 1 90.1168 222.447)" fill="white"/>
<rect width="2.6554" height="2.34913" transform="matrix(-1 0 0 1 83.6554 222.447)" fill="white"/>
<rect width="2.6554" height="2.34913" transform="matrix(-1 0 0 1 96.5784 228.781)" fill="white"/>
<rect width="2.6554" height="2.34913" transform="matrix(-1 0 0 1 90.1168 228.781)" fill="white"/>
<rect width="2.6554" height="2.34913" transform="matrix(-1 0 0 1 83.6554 228.781)" fill="white"/>
<rect width="2.6554" height="2.34913" transform="matrix(-1 0 0 1 96.5784 235.114)" fill="white"/>
<rect width="2.6554" height="2.34913" transform="matrix(-1 0 0 1 90.1168 235.114)" fill="white"/>
<rect width="2.6554" height="2.34913" transform="matrix(-1 0 0 1 83.6554 235.114)" fill="white"/>
<path d="M187.909 111.255C187.909 111.255 233.554 174.714 189.328 243.684L188.257 257.384L161.538 243.146L176.451 187.222L155.635 150.947L170.642 102.481" fill="#E2E2E2"/>
<path d="M181.735 98.3107L138.345 99.0734L138.742 142.428V257.384H172.531L168.958 250.982L181.735 98.3107Z" fill="#EDEEEF"/>
<path d="M155.596 21.9074V35.2112L172.077 39.2619V16.8109L155.596 12.7603V21.9074Z" fill="#EDEEEF"/>
<path d="M164.906 26.5102C164.663 26.5102 164.465 26.3129 164.465 26.0696C164.465 25.8262 164.663 25.6289 164.906 25.6289C165.149 25.6289 165.347 25.8262 165.347 26.0696C165.347 26.3129 165.149 26.5102 164.906 26.5102Z" fill="black"/>
<path d="M158.138 26.5102C157.894 26.5102 157.697 26.3129 157.697 26.0696C157.697 25.8262 157.894 25.6289 158.138 25.6289C158.381 25.6289 158.578 25.8262 158.578 26.0696C158.578 26.3129 158.381 26.5102 158.138 26.5102Z" fill="black"/>
<path d="M160.123 28.6984V21.9075H156.721" stroke="black" stroke-width="1.5"/>
<path d="M165.736 21.9074H162.334" stroke="black" stroke-width="1.5"/>
<path d="M156.192 20.7955H156.192" stroke="black" stroke-width="1.5"/>
<path d="M170.991 25.387V27.7452C171.602 27.7452 172.188 27.5025 172.62 27.0706C173.052 26.6386 173.295 26.0528 173.295 25.4419C173.295 25.3712 173.291 25.3013 173.285 25.2322C173.156 23.8019 170.991 23.9509 170.991 25.387Z" fill="#EDEEEF"/>
<path d="M170.991 27.7451C171.602 27.7451 172.188 27.5024 172.62 27.0705C173.052 26.6385 173.295 26.0527 173.295 25.4418" stroke="black" stroke-width="1.5"/>
<path d="M161.611 30.3724C162.899 30.3724 163.942 29.3287 163.942 28.0411" stroke="#FBB041" stroke-width="1.5" stroke-linecap="round" stroke-linejoin="round"/>
<path d="M155.596 35.2109L172.077 39.2616" stroke="black" stroke-width="1.5"/>
<path d="M160.123 28.7037L161.611 29.0694" stroke="black" stroke-width="1.5" stroke-linecap="round"/>
<path d="M170.755 24.8339C170.755 24.8339 167.544 21.8306 167.493 18.9308C167.493 18.9308 155.376 20.7432 153.563 20.2253L154.858 17.7398C153.402 17.1727 151.999 16.4797 150.664 15.6685C150.664 15.6685 166.25 4.79432 173.344 16.2381C173.344 16.2381 178.092 18.5165 173.181 24.8339" stroke="black" stroke-width="1.5"/>
<path d="M138.345 63.0851V99.0735L189.328 111.604V71.5229C189.328 57.3108 179.625 44.9348 165.824 41.5427H165.824C159.205 39.916 152.206 41.422 146.842 45.6271C141.478 49.8322 138.345 56.2695 138.345 63.0851L138.345 63.0851Z" fill="#FBB041"/>
<path d="M146.469 87.024C153.498 95.1069 168.763 94.2218 183.617 89.6497C180.742 95.3126 172.974 99.3725 163.836 99.3725C152.254 99.3725 142.865 92.8519 142.865 84.8085C142.865 84.0566 142.947 83.307 143.111 82.573C144.123 84.1344 145.246 85.6218 146.469 87.024Z" fill="black"/>
<path d="M168.958 250.982L181.735 98.3107" stroke="black" stroke-width="1.5"/>
<path d="M141.525 51.6213C141.525 51.6213 130.933 69.1594 146.469 87.0241C162.005 104.889 217.773 78.9462 220.414 66.2078C223.055 53.4694 221.035 54.5569 218.084 57.1977C215.132 59.8386 213.579 59.2172 213.579 59.2172C213.579 59.2172 213.113 54.2462 211.559 55.6443C210.006 57.0424 209.54 59.6833 209.54 59.6833L172.077 69.6254L162.777 54.2462" stroke="black" stroke-width="1.5"/>
<path d="M174.255 44.9966C174.255 44.9966 188.088 53.6085 193.765 63.8694" stroke="black" stroke-width="1.5"/>
<path d="M211.508 76.2476C211.508 76.2476 231.34 78.0658 241.282 79.7228C251.224 81.3798 240.039 83.4511 240.039 83.4511C240.039 83.4511 234.861 90.9077 225.955 88.0079C225.955 88.0079 207.796 96.7073 189.328 91.9433" stroke="black" stroke-width="1.5"/>
<rect width="121.813" height="88.3256" transform="matrix(-1 0 0 1 378.007 136)" fill="#D6D6D6"/>
<path d="M256.194 136V224.326" stroke="black" stroke-width="1.5"/>
<path d="M358.229 166.268L359.312 162.627C361.025 156.871 366.316 152.925 372.322 152.925H399.252L378.007 224.326H256.194L273.469 166.268H358.229Z" fill="#EDEEEF"/>
<path d="M378.007 224.325H256.194" stroke="black" stroke-width="1.5"/>
<path d="M256.194 224.326L273.469 166.268H358.229" stroke="black" stroke-width="1.5"/>
<path d="M314.497 73.3484H276.117" stroke="black" stroke-width="1.5"/>
<path d="M314.497 81.4509H276.117" stroke="black" stroke-width="1.5"/>
<path d="M314.497 89.9797H276.117" stroke="black" stroke-width="1.5"/>
<path d="M314.497 97.6557H294.881" stroke="black" stroke-width="1.5"/>
<path d="M363.965 0V120.257H271V33.1252L304.346 0H363.965Z" fill="#EDEEEF"/>
<path d="M363.965 120.257H271V33.2626" stroke="black" stroke-width="1.5"/>
<path d="M271 33.2627L304.263 0V33.2627H271Z" fill="#FBB041"/>
<path d="M320.21 36.7736C303.19 36.7736 289.4 50.5636 289.4 67.5838C289.4 84.604 303.19 98.3941 320.21 98.3941C337.23 98.3941 351.02 84.604 351.02 67.5838C351.02 50.5636 337.23 36.7736 320.21 36.7736ZM320.21 94.4185C305.302 94.4185 293.375 82.492 293.375 67.5838C293.375 52.7999 305.302 40.7491 320.21 40.7491C334.994 40.7491 347.045 52.7999 347.045 67.5838C347.045 82.492 334.994 94.4185 320.21 94.4185ZM320.21 75.5348C314.619 75.5348 309.401 78.0195 305.923 82.2435C305.177 83.1132 305.302 84.3555 306.171 85.1009C307.041 85.7221 308.283 85.7221 308.904 84.8525C311.762 81.4981 315.862 79.6346 320.086 79.6346C324.434 79.6346 328.534 81.4981 331.391 84.8525C332.012 85.5979 333.254 85.8463 334.124 85.1009C334.994 84.3555 335.118 83.1132 334.373 82.2435C330.894 78.0195 325.676 75.5348 320.21 75.5348ZM310.271 65.596C312.383 65.596 314.247 63.8568 314.247 61.6205C314.247 59.5085 312.383 57.645 310.271 57.645C308.035 57.645 306.295 59.5085 306.295 61.6205C306.295 63.8568 308.035 65.596 310.271 65.596ZM330.149 65.596C332.261 65.596 334.124 63.8568 334.124 61.6205C334.124 59.5085 332.261 57.645 330.149 57.645C327.912 57.645 326.173 59.5085 326.173 61.6205C326.173 63.8568 327.912 65.596 330.149 65.596Z" fill="#FBB041"/>
</svg>
