<svg width="23" height="20" viewBox="0 0 23 20" fill="none" xmlns="http://www.w3.org/2000/svg">
<path d="M12 1.5C17.2852 1.5 21.625 4.89453 21.625 9.0625C21.625 13.2305 17.2852 16.625 12 16.625C10.7539 16.625 9.55078 16.4531 8.39062 16.1094L7.74609 15.8945L7.1875 16.2812C6.19922 16.9688 4.69531 17.7852 2.80469 18C3.32031 17.3555 4.05078 16.2383 4.52344 14.9922L4.82422 14.1758L4.26562 13.5742C3.01953 12.2422 2.375 10.6953 2.375 9.0625C2.375 4.89453 6.67188 1.5 12 1.5ZM12 0.125C5.89844 0.125 1 4.16406 1 9.0625C1 11.125 1.81641 13.0156 3.23438 14.5195C2.63281 16.1953 1.30078 17.6562 1.25781 17.6562C0.957031 17.957 0.914062 18.3867 1.04297 18.7734C1.21484 19.1602 1.60156 19.375 1.98828 19.375C4.65234 19.375 6.71484 18.3008 8.00391 17.3984C9.25 17.7852 10.582 18 12 18C18.0586 18 23 14.0039 23 9.0625C23 4.16406 18.0586 0.125 12 0.125Z" fill="#333333"/>
</svg>
