<svg width="47" height="49" viewBox="0 0 47 49" fill="none" xmlns="http://www.w3.org/2000/svg">
<path d="M9.39993 20.9823V29.7389C9.39992 36.5097 14.0223 42.4058 20.5975 44.0219L34.5321 47.4468V13.2105L22.9456 10.3628C19.6829 9.56087 16.2326 10.3033 13.5885 12.3762C10.9444 14.4492 9.39991 17.6225 9.39991 20.9823L9.39993 20.9823Z" fill="#EDEEEF"/>
<path d="M9.39991 29.7388C9.39991 36.5096 14.0223 42.4057 20.5975 44.0218L34.532 47.4467" stroke="black" stroke-width="1.5"/>
<path d="M23.597 28.0014C23.9681 28.0014 24.2689 27.7006 24.2689 27.3294C24.2689 26.9583 23.9681 26.6575 23.597 26.6575C23.2258 26.6575 22.925 26.9583 22.925 27.3294C22.925 27.7006 23.2258 28.0014 23.597 28.0014Z" fill="black"/>
<path d="M13.2756 28.0014C13.6467 28.0014 13.9476 27.7006 13.9476 27.3294C13.9476 26.9583 13.6467 26.6575 13.2756 26.6575C12.9045 26.6575 12.6036 26.9583 12.6036 27.3294C12.6036 27.7006 12.9045 28.0014 13.2756 28.0014Z" fill="black"/>
<path d="M16.3039 31.338V20.9822H12.3324" stroke="black" stroke-width="1.5"/>
<path d="M24.8625 20.9824H19.6745" stroke="black" stroke-width="1.5"/>
<path d="M32.8764 29.8843C34.8163 29.8843 36.3888 28.3117 36.3888 26.3718" stroke="black" stroke-width="1.5"/>
<path d="M19.1399 32.5479C20.0482 33.4561 21.5208 33.4561 22.4291 32.5479" stroke="#FBB041" stroke-width="1.5" stroke-linecap="round" stroke-linejoin="round"/>
<path d="M16.3034 31.3461L18.5725 31.9038" stroke="black" stroke-width="1.5" stroke-linecap="round"/>
<path d="M8.86759 27.3294L1.16855 23.108C1.16855 23.108 12.421 -9.10948 35.5181 5.10413C58.6152 19.3177 34.5319 35.5449 34.5319 35.5449" stroke="black" stroke-width="1.5"/>
<path d="M8.31491 21.7656C8.31491 21.7656 23.5974 19.3021 28.9196 11.8311C28.9196 11.8311 26.7548 22.6486 33.1698 25.2867" stroke="black" stroke-width="1.5"/>
</svg>
