<svg width="23" height="20" viewBox="0 0 23 20" fill="none" xmlns="http://www.w3.org/2000/svg">
<path d="M20.8516 1.45703C18.4883 -0.519531 15.0078 -0.21875 12.8164 2.05859L12 2.91797L11.1406 2.05859C9.37891 0.253906 5.85547 -0.863281 3.10547 1.45703C0.398438 3.77734 0.269531 7.90234 2.67578 10.3945L11.0117 18.9883C11.2695 19.2461 11.6133 19.375 11.957 19.375C12.3438 19.375 12.6875 19.2461 12.9453 18.9883L21.2812 10.3945C23.6875 7.90234 23.5586 3.77734 20.8516 1.45703ZM20.293 9.44922L12 18.043L3.66406 9.44922C2.03125 7.73047 1.6875 4.50781 4.00781 2.53125C6.37109 0.511719 9.12109 1.97266 10.1523 3.00391L12 4.89453L13.8047 3.00391C14.793 1.97266 17.5859 0.511719 19.9492 2.53125C22.2695 4.50781 21.9258 7.73047 20.293 9.44922Z" fill="#333333"/>
</svg>
