<svg width="425" height="419" viewBox="0 0 425 419" fill="none" xmlns="http://www.w3.org/2000/svg">
<rect width="210.03" height="225.569" transform="matrix(-1 0 0 1 415.949 13.1809)" fill="#EDEEEF"/>
<rect width="94.4729" height="16.6367" transform="matrix(-1 0 0 1 358.17 6.02979)" fill="#FBB041"/>
<path d="M263.698 6.0293V22.666H358.17" stroke="black" stroke-width="1.5"/>
<path d="M310.934 12.8184C307.394 12.8184 304.525 9.94891 304.525 6.40921C304.525 2.8695 307.394 0 310.934 0C314.474 0 317.343 2.8695 317.343 6.40921C317.343 9.94891 314.474 12.8184 310.934 12.8184Z" fill="#FBB041"/>
<path d="M310.934 238.75V417.691" stroke="black" stroke-width="1.5"/>
<path d="M424.609 417.691H197.259" stroke="black" stroke-width="1.5"/>
<path d="M21.7485 408.631V394.853L34.466 406.511L38.7048 369.949L72.0877 393.793L76.3265 377.897L87.9836 389.555V370.479L102.29 387.435L115.008 349.284L130.904 388.521L154.219 359.351L171.705 399.093V380.017L181.772 398.563L188.661 373.658L207.737 403.331L236.88 366.77L245.888 402.801L254.367 392.734L260.725 417.691H15.9199L13.8008 408.101L21.7485 408.631V408.631Z" fill="#F4F4F4"/>
<path d="M274.525 417.691H-3.98914e-05" stroke="black" stroke-width="1.5"/>
<path d="M85.3982 163.179L145.747 159.211L161.376 220.854L197.258 416.454H148.418L154.106 406.261L85.3982 163.179V163.179Z" fill="#EDEEEF"/>
<path d="M77.546 405.663L74.5779 294.36L122.067 303.264L111.041 416.454H70.4547L77.546 405.663V405.663Z" fill="#E2E2E2"/>
<path d="M92.1022 297.646L122.067 303.265L120.745 316.842C95.8095 313.478 78.6369 306.782 78.6369 306.782L92.1022 297.646Z" fill="black"/>
<path d="M151.628 257.26C151.628 257.26 159.183 259.59 169.18 263.391L178.836 316.03C161.233 319.241 144.091 319.231 129.103 317.803L118.369 279.825L151.628 257.26Z" fill="black"/>
<path d="M151.628 164.394L211.061 287.632C211.061 287.632 140.572 324.731 70.4546 304.698V177.077L151.628 164.394Z" fill="#FBB041"/>
<path d="M129.515 41.5307V50.6734C129.515 57.7428 124.689 63.8989 117.824 65.5863L103.275 69.1622V33.4162L115.372 30.4429C118.779 29.6056 122.381 30.3808 125.142 32.5451C127.903 34.7094 129.515 38.0227 129.515 41.5307L129.515 41.5307Z" fill="#EDEEEF"/>
<path d="M129.515 50.6733C129.515 57.7428 124.689 63.8989 117.824 65.5862L103.275 69.1621" stroke="black" stroke-width="1.5"/>
<path d="M114.692 48.8593C114.305 48.8593 113.991 48.5452 113.991 48.1577C113.991 47.7702 114.305 47.4561 114.692 47.4561C115.08 47.4561 115.394 47.7702 115.394 48.1577C115.394 48.5452 115.08 48.8593 114.692 48.8593Z" fill="black"/>
<path d="M125.469 48.8593C125.081 48.8593 124.767 48.5452 124.767 48.1577C124.767 47.7702 125.081 47.4561 125.469 47.4561C125.856 47.4561 126.17 47.7702 126.17 48.1577C126.17 48.5452 125.856 48.8593 125.469 48.8593Z" fill="black"/>
<path d="M122.307 52.3432V41.5308H127.724" stroke="black" stroke-width="1.5"/>
<path d="M113.371 41.5306H118.787" stroke="black" stroke-width="1.5"/>
<path d="M119.345 53.6064C118.397 54.5548 116.86 54.5548 115.911 53.6064" stroke="#FBB041" stroke-width="1.5" stroke-linecap="round" stroke-linejoin="round"/>
<path d="M122.307 52.3515L119.938 52.9338" stroke="black" stroke-width="1.5" stroke-linecap="round"/>
<path d="M124.767 63.5924L125.184 63.7821C127.882 65.0134 131.025 64.762 133.493 63.1174C135.961 61.4728 137.403 58.6688 137.306 55.7046C136.83 42.0656 133.622 23.1432 119.346 24.4974C119.346 24.4974 104.842 21.1736 99.03 34.53C93.2175 47.8863 100.347 54.3171 103.275 55.8012" stroke="black" stroke-width="1.5"/>
<path d="M129.824 45.2311C129.824 45.2311 118.872 43.3104 117.628 35.9727C117.628 35.9727 112.203 45.0609 104.632 45.9375" stroke="black" stroke-width="1.5"/>
<path d="M151.628 107.093V164.393L70.4547 184.345V120.528C70.4547 97.8993 85.9028 78.1945 107.877 72.7936H107.877C118.415 70.2035 129.559 72.6014 138.099 79.2967C146.64 85.992 151.628 96.2414 151.628 107.093L151.628 107.093Z" fill="#EDEEEF"/>
<path d="M92.2388 79.6958C92.2388 79.6958 52.4666 107.507 52.3173 148.925C52.1004 209.111 145.577 154.861 148.602 144.967L151.628 135.074C151.628 135.074 164.115 129.931 161.147 128.05C158.179 126.169 70.4545 144.802 70.4545 144.802" stroke="black" stroke-width="1.5"/>
<path d="M137.311 79.6958C137.311 79.6958 160.158 95.9939 169.557 138.536C169.557 138.536 184.892 117.291 190.333 109.116C195.775 100.941 200.227 106.382 200.227 106.382C200.227 106.382 206.559 96.9832 211.061 100.941C215.562 104.898 203.522 172.768 159.579 180.881" stroke="black" stroke-width="1.5"/>
<path d="M155.838 133.226L247.881 87.9141" stroke="black" stroke-width="1.5"/>
<path d="M333.5 71C364.704 71 390 96.2959 390 127.5C390 158.704 364.704 184 333.5 184C302.296 184 277 158.704 277 127.5H333.5V71Z" fill="#F4F4F4"/>
<path d="M277 128H333L287.93 161C280.814 151.45 276.982 139.88 277 128Z" fill="black"/>
<path d="M333 54V128H260C260 108.374 267.691 89.5518 281.381 75.6741C295.071 61.7964 313.639 54 333 54Z" fill="#FBB041"/>
</svg>
