<svg width="396" height="449" viewBox="0 0 396 449" fill="none" xmlns="http://www.w3.org/2000/svg">
<path d="M76.4111 424.182H108.509V410.602H141.306V394.551L165.729 372.945H202.712V310.597H250.859V233.434L311.567 287.14V389.613H343.666V435.005H356.923V422.33H380.649V447.68H60.3616V438.38L76.4111 424.182Z" fill="#F4F4F4"/>
<path d="M396 447.68H45.0105" stroke="black" stroke-width="1.5"/>
<rect x="247.147" y="330.096" width="4.38527" height="3.87947" transform="rotate(-180 247.147 330.096)" fill="white"/>
<rect x="236.477" y="330.096" width="4.38527" height="3.87947" transform="rotate(-180 236.477 330.096)" fill="white"/>
<rect x="225.806" y="330.096" width="4.38527" height="3.87947" transform="rotate(-180 225.806 330.096)" fill="white"/>
<rect x="247.147" y="340.557" width="4.38527" height="3.87947" transform="rotate(-180 247.147 340.557)" fill="white"/>
<rect x="236.477" y="340.557" width="4.38527" height="3.87947" transform="rotate(-180 236.477 340.557)" fill="white"/>
<rect x="225.806" y="340.557" width="4.38527" height="3.87947" transform="rotate(-180 225.806 340.557)" fill="white"/>
<rect x="247.147" y="351.017" width="4.38527" height="3.87947" transform="rotate(-180 247.147 351.017)" fill="white"/>
<rect x="236.477" y="351.017" width="4.38527" height="3.87947" transform="rotate(-180 236.477 351.017)" fill="white"/>
<rect x="225.806" y="351.017" width="4.38527" height="3.87947" transform="rotate(-180 225.806 351.017)" fill="white"/>
<rect x="247.147" y="361.477" width="4.38527" height="3.87947" transform="rotate(-180 247.147 361.477)" fill="white"/>
<rect x="236.477" y="361.477" width="4.38527" height="3.87947" transform="rotate(-180 236.477 361.477)" fill="white"/>
<rect x="225.806" y="361.477" width="4.38527" height="3.87947" transform="rotate(-180 225.806 361.477)" fill="white"/>
<rect x="247.147" y="371.937" width="4.38527" height="3.87947" transform="rotate(-180 247.147 371.937)" fill="white"/>
<rect x="236.477" y="371.937" width="4.38527" height="3.87947" transform="rotate(-180 236.477 371.937)" fill="white"/>
<rect x="225.806" y="371.937" width="4.38527" height="3.87947" transform="rotate(-180 225.806 371.937)" fill="white"/>
<rect x="247.147" y="382.396" width="4.38527" height="3.87947" transform="rotate(-180 247.147 382.396)" fill="white"/>
<rect x="236.477" y="382.396" width="4.38527" height="3.87947" transform="rotate(-180 236.477 382.396)" fill="white"/>
<rect x="225.806" y="382.396" width="4.38527" height="3.87947" transform="rotate(-180 225.806 382.396)" fill="white"/>
<rect x="247.147" y="392.856" width="4.38527" height="3.87947" transform="rotate(-180 247.147 392.856)" fill="white"/>
<rect x="236.477" y="392.856" width="4.38527" height="3.87947" transform="rotate(-180 236.477 392.856)" fill="white"/>
<rect x="225.806" y="392.856" width="4.38527" height="3.87947" transform="rotate(-180 225.806 392.856)" fill="white"/>
<rect x="247.147" y="403.316" width="4.38527" height="3.87947" transform="rotate(-180 247.147 403.316)" fill="white"/>
<rect x="236.477" y="403.316" width="4.38527" height="3.87947" transform="rotate(-180 236.477 403.316)" fill="white"/>
<rect x="225.806" y="403.316" width="4.38527" height="3.87947" transform="rotate(-180 225.806 403.316)" fill="white"/>
<rect x="247.147" y="413.776" width="4.38527" height="3.87947" transform="rotate(-180 247.147 413.776)" fill="white"/>
<rect x="236.477" y="413.776" width="4.38527" height="3.87947" transform="rotate(-180 236.477 413.776)" fill="white"/>
<rect x="225.806" y="413.776" width="4.38527" height="3.87947" transform="rotate(-180 225.806 413.776)" fill="white"/>
<path d="M53.9524 184.954C53.9524 184.954 23.1171 291.495 9.86199 419.927L0.224731 426.339L42.2929 446.397L96.0497 298.787L104.729 179.579" fill="#E2E2E2"/>
<path d="M66.6611 183.695L126.738 179.579L137.662 184.028L142.796 446.396H86.9949L92.8955 435.824L66.6611 183.695Z" fill="#EDEEEF"/>
<path d="M79.3041 57.5187V67.0016C79.3041 74.3342 84.31 80.7195 91.4306 82.4696L106.521 86.1786V49.1022L93.9735 46.0182C90.4401 45.1497 86.7036 45.9537 83.8401 48.1986C80.9767 50.4435 79.3041 53.8801 79.3041 57.5187L79.3041 57.5187Z" fill="#EDEEEF"/>
<path d="M79.3041 67.0024C79.3041 74.335 84.31 80.7203 91.4306 82.4704L106.521 86.1794" stroke="black" stroke-width="1.5"/>
<path d="M94.6788 65.121C95.0807 65.121 95.4065 64.7952 95.4065 64.3933C95.4065 63.9913 95.0807 63.6655 94.6788 63.6655C94.2769 63.6655 93.951 63.9913 93.951 64.3933C93.951 64.7952 94.2769 65.121 94.6788 65.121Z" fill="black"/>
<path d="M83.5014 65.121C83.9033 65.121 84.2291 64.7952 84.2291 64.3933C84.2291 63.9913 83.9033 63.6655 83.5014 63.6655C83.0995 63.6655 82.7737 63.9913 82.7737 64.3933C82.7737 64.7952 83.0995 65.121 83.5014 65.121Z" fill="black"/>
<path d="M86.7807 68.7339V57.519H82.4797" stroke="black" stroke-width="1.5"/>
<path d="M96.0498 57.5189H90.4315" stroke="black" stroke-width="1.5"/>
<path d="M104.729 63.2658V67.1603C106.829 67.1603 108.532 65.4573 108.532 63.3565C108.532 63.2398 108.527 63.1244 108.517 63.0103C108.304 60.6482 104.729 60.8941 104.729 63.2658Z" fill="#EDEEEF"/>
<path d="M104.729 67.1598C106.829 67.1598 108.532 65.4568 108.532 63.356" stroke="black" stroke-width="1.5"/>
<path d="M89.8524 70.0439C90.8361 71.0276 92.4309 71.0276 93.4145 70.0439" stroke="#FBB041" stroke-width="1.5" stroke-linecap="round" stroke-linejoin="round"/>
<path d="M86.7805 68.7433L89.2378 69.3473" stroke="black" stroke-width="1.5" stroke-linecap="round"/>
<path d="M53.9524 125.522V184.955L138.147 205.649V139.457C138.147 115.986 122.124 95.5478 99.3315 89.9459H99.3314C88.4011 87.2594 76.8425 89.7465 67.9845 96.691C59.1265 103.635 53.9524 114.266 53.9524 125.522V125.522Z" fill="#FBB041"/>
<path d="M92.8952 435.824L66.6608 183.695" stroke="black" stroke-width="1.5"/>
<path d="M78.7277 64.3927L70.39 59.8212C70.39 59.8212 82.5759 24.931 107.589 40.3237C132.602 55.7165 106.521 73.2899 106.521 73.2899" stroke="black" stroke-width="1.5"/>
<path d="M78.1291 58.3676C78.1291 58.3676 94.6794 55.6998 100.443 47.6089C100.443 47.6089 98.0988 59.3239 105.046 62.1808" stroke="black" stroke-width="1.5"/>
<path d="M118.436 99.1853C118.436 99.1853 146.969 119.251 159.283 147.259C159.283 147.259 154.922 95.7373 161.079 87.2713C164.329 82.8021 168.006 88.8691 168.006 88.8691C168.006 88.8691 184.168 82.1404 184.681 84.7058C185.194 87.2713 175.702 97.02 175.702 97.02C175.702 97.02 189.556 160.796 178.781 179.011C168.006 197.226 113.361 160.9 113.361 160.9" stroke="black" stroke-width="1.5"/>
<path d="M119.249 164.604C119.249 164.604 119.363 189.617 138.147 200.257V174.963L119.249 164.604Z" fill="black"/>
<path d="M68.3311 96.4263C68.3311 96.4263 42.9824 115.212 38.1936 134.122C38.1936 134.122 30.3262 82.9405 25.8794 84.1224C21.4326 85.3043 20.4064 88.869 20.4064 88.869C20.4064 88.869 6.38189 81.532 4.32952 84.1023C2.27715 86.6725 16.6437 100.697 16.6437 100.697C16.6437 100.697 7.95267 161.861 18.012 170.135C39.2198 187.581 53.9525 162.61 53.9525 162.61" stroke="black" stroke-width="1.5"/>
<path d="M251.588 90.1733L230.52 111.565V90.1733H251.588Z" fill="#E2E2E2"/>
<path d="M230.52 111.565V90.1733" stroke="black" stroke-width="1.5"/>
<rect x="335.327" y="93.5718" width="139.393" height="93.5717" transform="rotate(-180 335.327 93.5718)" fill="#EDEEEF"/>
<path d="M195.933 0V93.5719H230.52" stroke="black" stroke-width="1.5"/>
<rect x="297.395" y="51.0698" width="8.56834" height="8.56834" transform="rotate(-180 297.395 51.0698)" fill="#FBB041"/>
<rect x="269.914" y="51.0698" width="8.56834" height="8.56834" transform="rotate(-180 269.914 51.0698)" fill="#FBB041"/>
<rect x="242.433" y="51.0698" width="8.56834" height="8.56834" transform="rotate(-180 242.433 51.0698)" fill="#FBB041"/>
</svg>
