<svg width="338" height="249" viewBox="0 0 338 249" fill="none" xmlns="http://www.w3.org/2000/svg">
<path d="M63.5386 247.47H138.733" stroke="black" stroke-width="1.5"/>
<rect x="151.983" y="130.212" width="44.8563" height="16.0864" rx="8.04319" fill="#FBB041"/>
<path d="M188.797 146.299H160.027" stroke="black" stroke-width="1.5"/>
<path d="M174.411 146.299V248.076" stroke="black" stroke-width="1.5"/>
<path d="M233.659 98.9676C233.659 98.9676 284.091 115.692 303.115 173.229L311.467 176.941L284.555 185.294L240.938 138.255L210.116 117.738" fill="#E2E2E2"/>
<path d="M252.221 198.27C265.642 106.566 219.131 102.923 219.131 102.923L197.633 138.256L218.926 137.342L224.761 208.287L256.328 205.385L252.221 198.27Z" fill="#EDEEEF"/>
<path d="M252.221 198.27C265.642 106.566 219.131 102.923 219.131 102.923" stroke="black" stroke-width="1.5"/>
<path d="M208.378 90.4461L157.616 102.923C157.616 102.923 154.258 141.864 208.378 138.255L237.691 97.2204L208.378 90.4461Z" fill="#EDEEEF"/>
<path d="M208.379 138.255L237.691 97.2205" stroke="black" stroke-width="1.5"/>
<path d="M157.616 102.923C157.616 102.923 154.258 141.865 208.378 138.256" stroke="black" stroke-width="1.5"/>
<path d="M172.901 13.6126V19.3301C172.901 23.7511 175.92 27.6008 180.213 28.656L189.311 30.8923V8.53812L181.746 6.67872C179.616 6.15512 177.363 6.63987 175.636 7.99336C173.91 9.34686 172.901 11.4188 172.901 13.6126V13.6126Z" fill="#EDEEEF"/>
<path d="M172.901 19.3298C172.901 23.7508 175.92 27.6006 180.213 28.6558L189.311 30.892" stroke="black" stroke-width="1.5"/>
<path d="M182.661 18.1956C182.903 18.1956 183.1 17.9991 183.1 17.7568C183.1 17.5145 182.903 17.3181 182.661 17.3181C182.419 17.3181 182.222 17.5145 182.222 17.7568C182.222 17.9991 182.419 18.1956 182.661 18.1956Z" fill="black"/>
<path d="M175.431 18.1956C175.674 18.1956 175.87 17.9991 175.87 17.7568C175.87 17.5145 175.674 17.3181 175.431 17.3181C175.189 17.3181 174.992 17.5145 174.992 17.7568C174.992 17.9991 175.189 18.1956 175.431 18.1956Z" fill="black"/>
<path d="M177.408 20.3744V13.6127H174.021" stroke="black" stroke-width="1.5"/>
<path d="M182.997 13.6126H179.609" stroke="black" stroke-width="1.5"/>
<path d="M188.72 17.0772V19.4253C189.987 19.4253 191.014 18.3985 191.014 17.1319C191.014 17.0615 191.011 16.9919 191.004 16.9231C190.876 15.499 188.72 15.6473 188.72 17.0772Z" fill="#EDEEEF"/>
<path d="M188.23 19.4251C189.497 19.4251 190.523 18.3983 190.523 17.1317" stroke="black" stroke-width="1.5"/>
<path d="M179.26 21.1642C179.854 21.7572 180.815 21.7572 181.408 21.1642" stroke="#FBB041" stroke-width="1.5" stroke-linecap="round" stroke-linejoin="round"/>
<path d="M177.409 20.3796L178.89 20.7437" stroke="black" stroke-width="1.5" stroke-linecap="round"/>
<path d="M172.427 11.2142L185.214 11.8329C185.214 11.8329 185.946 16.0234 188.23 16.4732" stroke="#FBB041" stroke-width="1.5" stroke-linecap="round" stroke-linejoin="round"/>
<path d="M172.427 22.2478L166.652 20.3742C166.652 20.3742 166.962 -1.46928 185.523 1.83049C185.523 1.83049 197.278 2.30308 198.516 14.9866C199.753 27.6701 199.56 28.4821 199.56 28.4821L189.31 26.0632" stroke="#FBB041" stroke-width="1.5" stroke-linecap="round" stroke-linejoin="round"/>
<path d="M208.378 54.613V90.4463L157.615 102.923V63.0143C157.615 48.8634 167.276 36.5408 181.018 33.1633H181.018C187.608 31.5436 194.577 33.0431 199.917 37.2301C205.258 41.4171 208.378 47.8267 208.378 54.6129V54.613Z" fill="#FBB041"/>
<path d="M172.428 36.7216C172.428 36.7216 138.857 56.7635 126.793 86.9239C114.729 117.084 175.47 98.5348 175.47 98.5348C175.47 98.5348 185.349 99.1799 189.061 94.5335L193.564 94.0876L193.031 91.9555L155.496 83.7061L172.901 67.7187" stroke="black" stroke-width="1.5"/>
<path d="M155.497 83.7064L169.263 86.7319C159.22 83.0179 169.925 70.4535 169.928 70.4504L155.497 83.7064Z" fill="black"/>
<path d="M176.834 88.3957C176.413 88.0922 175.253 87.8165 173.139 87.5836L176.834 88.3957Z" fill="black"/>
<path d="M204.024 41.4353L219.131 64.3202C219.131 64.3202 224.173 37.0971 231.185 34.6223C238.197 32.1475 241.496 30.8926 241.496 30.8926L242.281 33.3692L239.022 36.7219C239.022 36.7219 242.186 43.6966 236.892 45.3465C236.892 45.3465 252.563 89.8575 220.631 93.2784" stroke="black" stroke-width="1.5"/>
<path d="M75.8065 207.882C74.2602 203.552 69.7301 209.271 69.7301 209.271C69.7301 209.271 75.188 197.676 69.7301 195.047C67.0378 193.751 65.6211 195.276 64.876 197.155C67.6687 180.296 68.2713 147.779 56.9997 146.647C44.6875 145.41 48.9002 176.646 48.9002 176.646C48.9002 176.646 45.4982 167.677 41.1687 171.697C36.8392 175.718 45.189 202.006 45.189 202.006C44.2611 199.222 39.3129 197.057 37.4572 202.006C35.6016 206.954 42.7148 217.469 42.7148 217.469L67.147 221.49C67.147 221.49 77.3528 212.212 75.8065 207.882Z" fill="black"/>
<path d="M73.9884 247.469H39.0036L31.2671 216.206H81.7246L73.9884 247.469Z" fill="#FBB041"/>
<path d="M0 247.47H116.666" stroke="black" stroke-width="1.5"/>
<path d="M31.2671 216.207H81.7245" stroke="black" stroke-width="1.5"/>
<path d="M333.029 241.803V233.187L325.077 240.478L322.426 217.613L301.55 232.525L298.898 222.584L291.609 229.874V217.945L282.662 228.548L274.709 204.69L264.768 229.228L250.188 210.986L239.253 235.839V223.909L232.957 235.507L228.649 219.933L216.719 238.489L198.494 215.625L192.861 238.158L187.559 231.862L183.583 247.469H336.674L338 241.472L333.029 241.803Z" fill="#EDEEEF"/>
<path d="M100.613 247.484H335.378" stroke="black" stroke-width="1.5"/>
</svg>
