<svg width="666" height="577" viewBox="0 0 666 577" fill="none" xmlns="http://www.w3.org/2000/svg">
<path d="M469.837 513.477L448.456 532.044L391.44 459.136L365.782 480.609L230.369 302.553L110.634 513.477L77.8498 477.25L17.9818 575.547H519.727L469.837 513.477V513.477Z" fill="#F4F4F4"/>
<path d="M-0.000105979 575.547H537.709" stroke="black" stroke-width="1.5"/>
<path d="M400.769 204.826C400.769 204.826 615.586 477.526 232.244 467.752L217.041 480.783V389.282L348.388 360.243L332.963 191.92" fill="#FBB041"/>
<path d="M343.793 310.1C383.453 312.18 415.212 365.073 415.212 430.026C415.212 431.45 415.191 432.866 415.161 434.278C385.919 453.085 340.176 465.76 271.247 467.736C268.749 455.322 267.501 442.689 267.522 430.026C267.439 411.865 270.058 393.793 275.293 376.403L348.388 360.243L343.793 310.1Z" fill="black"/>
<path d="M381.45 209.574C381.45 209.574 396.065 448.124 354.785 561.069L363.408 573.737H289.987C289.987 573.737 281.965 270.316 281.965 204.826L381.45 209.574Z" fill="#FBB041"/>
<path d="M325.666 25.0052V56.0071L364.071 65.4463V13.1288L325.666 3.68958V25.0052V25.0052Z" fill="#EDEEEF"/>
<path d="M347.361 35.7313C346.794 35.7313 346.334 35.2715 346.334 34.7044C346.334 34.1373 346.794 33.6776 347.361 33.6776C347.928 33.6776 348.388 34.1373 348.388 34.7044C348.388 35.2715 347.928 35.7313 347.361 35.7313Z" fill="black"/>
<path d="M331.589 35.7313C331.022 35.7313 330.562 35.2715 330.562 34.7044C330.562 34.1373 331.022 33.6776 331.589 33.6776C332.156 33.6776 332.616 34.1373 332.616 34.7044C332.616 35.2715 332.156 35.7313 331.589 35.7313Z" fill="black"/>
<path d="M336.216 40.8301V25.0052H328.288" stroke="black" stroke-width="1.5"/>
<path d="M349.295 25.0053H341.367" stroke="black" stroke-width="1.5"/>
<path d="M361.542 33.1135V38.609C364.506 38.609 366.909 36.2059 366.909 33.2415C366.909 33.0768 366.902 32.914 366.887 32.753C366.586 29.4199 361.542 29.767 361.542 33.1135Z" fill="#EDEEEF"/>
<path d="M361.542 38.609C364.506 38.609 366.909 36.2059 366.909 33.2415" stroke="black" stroke-width="1.5"/>
<path d="M339.683 44.7312C341.124 44.7312 342.506 44.1589 343.525 43.1401C344.543 42.1213 345.116 40.7395 345.116 39.2987" stroke="#FBB041" stroke-width="1.5" stroke-linecap="round" stroke-linejoin="round"/>
<path d="M325.666 56.0069L364.071 65.4462" stroke="black" stroke-width="1.5"/>
<path d="M336.216 40.8427L339.683 41.6949" stroke="black" stroke-width="1.5" stroke-linecap="round"/>
<path d="M400.769 120.962V204.826L281.965 234.026V140.624C281.965 107.506 304.575 78.6661 336.736 70.7614H336.737C352.16 66.9706 368.47 70.4801 380.969 80.2792C393.468 90.0784 400.769 105.079 400.769 120.962L400.769 120.962Z" fill="#EDEEEF"/>
<path d="M381.45 209.574C381.45 209.574 396.065 448.124 354.785 561.069" stroke="#FBB041" stroke-width="1.5"/>
<path d="M365.351 30.6172C365.351 30.6172 370.514 13.5161 362.368 6.45703C354.223 -0.602026 318.204 1.20799 318.204 1.20799C318.204 1.20799 315.67 26.1862 352.775 20.2131C352.775 20.2131 353.315 27.1348 359.472 28.3582" stroke="black" stroke-width="1.5"/>
<path d="M314.156 80.6585C314.156 80.6585 259.982 115.427 270.118 209.574C280.254 303.722 418.781 184.502 422.642 175.814C426.503 167.126 412.023 159.886 394.165 170.022C394.165 170.022 401.405 163.944 398.026 163.121C394.647 162.299 387.756 164.713 383.961 172.435L300.044 187.881" stroke="black" stroke-width="1.5"/>
<path d="M398.356 164.833H482.01L518.693 80.026" stroke="black" stroke-width="1.5"/>
<path d="M513.558 89.1746L383.961 18.9461" stroke="#FBB041" stroke-width="1.5" stroke-linecap="round" stroke-linejoin="round"/>
<path d="M384.793 83.5941C384.793 83.5941 414.487 111.619 423.27 164.833" stroke="black" stroke-width="1.5"/>
<path d="M464.634 164.833C464.634 164.833 443.377 225.045 418.71 230.959" stroke="black" stroke-width="1.5"/>
<path d="M431.33 164.833C431.33 164.833 441.815 150.232 448.76 146.854C455.705 143.475 476.701 151.198 474.046 154.818C471.392 158.438 466.565 156.507 466.565 156.507C466.565 156.507 467.772 160.127 465.6 161.093" stroke="black" stroke-width="1.5"/>
<path d="M587 248L509 275.5L587 303L665 275.5L587 248V248Z" fill="black"/>
<path d="M509 275L587 303L665 275" stroke="black" stroke-width="1.5"/>
<path d="M587 213L509 241L587 269L665 241L587 213V213Z" fill="#EDEEEF"/>
<path d="M509 241L587 269L665 241" stroke="black" stroke-width="1.5"/>
<path d="M587 179L509 206.5L587 234L665 206.5L587 179Z" fill="#FBB041"/>
<path d="M509 207L587 234L665 207" stroke="black" stroke-width="1.5"/>
</svg>
