<svg width="961" height="208" viewBox="0 0 961 208" fill="none" xmlns="http://www.w3.org/2000/svg">
<path d="M45.3185 80.4201C37.0788 80.4201 30.899 83.1888 27.4658 88.7262C24.0326 94.2636 21.9726 102.57 21.9726 115.029C21.9726 125.411 24.0326 132.333 27.4658 137.178C30.899 142.024 37.0788 143.408 46.0052 143.408H78.9641V160.02H44.6319C37.0788 160.02 30.899 159.328 26.7791 157.944C22.6593 156.559 18.5394 154.483 14.4195 151.714C9.61302 147.561 5.49316 142.716 3.43322 136.486C0.686645 130.257 0 122.643 0 113.644C0 96.3401 3.43322 83.881 10.9863 75.5749C18.5394 67.2688 29.5257 63.1157 45.3185 63.1157H78.9641V79.7279H45.3185V80.4201Z" fill="#31353F"/>
<path d="M82.3973 63.8079H103.683L125.656 137.871L144.195 63.8079H168.228L189.514 137.871L210.113 63.8079H230.713L201.873 160.02H177.154L156.555 88.034L138.702 160.02H113.983L82.3973 63.8079Z" fill="#31353F"/>
<path d="M262.298 160.02H241.012V63.8079H262.298V160.02Z" fill="#31353F"/>
<path d="M314.484 0.820312H302.124V207.088H314.484V0.820312Z" fill="#F9AF42"/>
<path d="M389.329 134.335V118.351H428.164V99.8702H389.329V85.1354H433.408V66.0302H364.854V153.44H435.031V134.335H389.329Z" fill="#A5A9AC"/>
<path d="M518.929 66.0302V112.607L480.344 66.0302H459.99V153.44H484.215V106.863L522.8 153.44H543.154V66.0302H518.929Z" fill="#A5A9AC"/>
<path d="M630.397 131.837C626.026 133.835 621.656 134.709 617.036 134.709C602.301 134.709 592.311 124.47 592.311 109.735C592.311 94.6256 602.301 84.7608 617.285 84.7608C625.652 84.7608 632.519 87.8826 638.513 94.5007L654.247 80.2654C645.631 69.9012 632.395 64.282 616.037 64.282C587.691 64.282 567.337 83.1375 567.337 109.735C567.337 136.332 587.691 155.188 615.537 155.188C628.274 155.188 642.135 151.317 652.249 144.074V107.862H630.397V131.837Z" fill="#A5A9AC"/>
<path d="M744.595 153.44H770.318L731.608 66.0302H707.259L668.673 153.44H693.897L700.765 136.457H737.727L744.595 153.44ZM708.008 118.226L719.246 90.2551L730.485 118.226H708.008Z" fill="#A5A9AC"/>
<path d="M809.5 155.188C831.478 155.188 843.216 143.95 843.216 121.223V66.0302H788.522V85.1354H818.741V122.722C818.741 131.088 814.87 135.458 807.752 135.458C802.133 135.458 797.263 132.337 792.643 126.343L779.157 142.326C785.9 150.693 796.764 155.188 809.5 155.188Z" fill="#A5A9AC"/>
<path d="M934.745 153.44H960.468L921.758 66.0302H897.409L858.823 153.44H884.047L890.915 136.457H927.877L934.745 153.44ZM898.158 118.226L909.396 90.2551L920.635 118.226H898.158Z" fill="#A5A9AC"/>
</svg>
