<svg width="123" height="133" viewBox="0 0 123 133" fill="none" xmlns="http://www.w3.org/2000/svg">
<path d="M70.9193 7.97762L63.5078 34.1214L37.7714 42.8363L60.3447 57.9622L60.6811 85.1325L82.0427 68.3388L107.985 76.4152L98.6145 50.9098L114.313 28.7311L87.1609 29.7626L70.9193 7.97762Z" fill="#42AEFF"/>
<path d="M93.5369 86.0189L89.3687 100.722L74.8948 105.623L87.5898 114.13L87.779 129.41L99.7926 119.966L114.382 124.508L109.112 110.164L117.941 97.6905L102.671 98.2706L93.5369 86.0189Z" fill="#EDEEEF"/>
<path d="M23.2085 56.0191L19.0404 70.7221L4.56643 75.6233L17.2614 84.1299L17.4506 99.4102L29.4642 89.9656L44.054 94.5078L38.784 80.1637L47.6129 67.6906L32.3427 68.2707L23.2085 56.0191Z" fill="#EDEEEF"/>
<path d="M98.6164 50.9097L114.315 28.7308" stroke="black" stroke-width="1.5"/>
<path d="M109.114 110.164L117.942 97.6904" stroke="black" stroke-width="1.5"/>
<path d="M38.7853 80.1637L47.6139 67.6905" stroke="black" stroke-width="1.5"/>
<path d="M70.9193 7.97762L63.5078 34.1214L37.7714 42.8363L60.3447 57.9622L60.6811 85.1325L82.0427 68.3388L107.985 76.4152" stroke="black" stroke-width="1.5"/>
<path d="M93.5369 86.0189L89.3687 100.722L74.8948 105.623L87.5898 114.13L87.779 129.41L99.7926 119.965L114.382 124.508" stroke="black" stroke-width="1.5"/>
<path d="M23.2085 56.0191L19.0404 70.7221L4.56643 75.6233L17.2614 84.1299L17.4506 99.4102L29.4642 89.9656L44.054 94.5078" stroke="black" stroke-width="1.5"/>
</svg>
