<svg width="197" height="382" viewBox="0 0 197 382" fill="none" xmlns="http://www.w3.org/2000/svg">
<path d="M102.094 201.384C102.094 201.384 68.306 318.128 53.7816 458.858L43.2214 465.884L89.3181 487.863L148.223 326.117L157.733 195.494" fill="#E2E2E2"/>
<path d="M116.02 200.003L181.85 195.494L193.82 200.369L199.446 487.862H138.301L144.766 476.277L116.02 200.003Z" fill="#EDEEEF"/>
<path d="M129.874 61.744V72.1351C129.874 80.1698 135.359 87.1665 143.161 89.0843L159.697 93.1485V52.5215L145.948 49.1421C142.076 48.1905 137.982 49.0715 134.844 51.5314C131.706 53.9913 129.874 57.757 129.874 61.744L129.874 61.744Z" fill="#EDEEEF"/>
<path d="M129.874 72.135C129.874 80.1698 135.359 87.1665 143.161 89.0842L159.697 93.1484" stroke="black" stroke-width="1.5"/>
<path d="M146.721 70.0733C147.161 70.0733 147.518 69.7163 147.518 69.2759C147.518 68.8355 147.161 68.4785 146.721 68.4785C146.28 68.4785 145.923 68.8355 145.923 69.2759C145.923 69.7163 146.28 70.0733 146.721 70.0733Z" fill="black"/>
<path d="M134.473 70.0733C134.913 70.0733 135.27 69.7163 135.27 69.2759C135.27 68.8355 134.913 68.4785 134.473 68.4785C134.032 68.4785 133.675 68.8355 133.675 69.2759C133.675 69.7163 134.032 70.0733 134.473 70.0733Z" fill="black"/>
<path d="M138.066 74.0328V61.7439H133.354" stroke="black" stroke-width="1.5"/>
<path d="M148.222 61.744H142.066" stroke="black" stroke-width="1.5"/>
<path d="M130.951 59.7318H130.951" stroke="black" stroke-width="1.5"/>
<path d="M157.732 68.0404V72.3079C160.034 72.3079 161.9 70.4418 161.9 68.1398C161.9 68.0119 161.895 67.8854 161.883 67.7604C161.65 65.1722 157.732 65.4416 157.732 68.0404Z" fill="#EDEEEF"/>
<path d="M157.732 72.3079C160.034 72.3079 161.9 70.4417 161.9 68.1398" stroke="black" stroke-width="1.5"/>
<path d="M141.432 75.4685C142.51 76.5463 144.257 76.5463 145.335 75.4685" stroke="#FBB041" stroke-width="1.5" stroke-linecap="round" stroke-linejoin="round"/>
<path d="M138.066 74.0426L140.758 74.7044" stroke="black" stroke-width="1.5" stroke-linecap="round"/>
<path d="M102.094 136.259V201.384L194.351 224.059V151.528C194.351 125.81 176.794 103.414 151.819 97.276H151.819C139.842 94.3323 127.176 97.0576 117.47 104.667C107.764 112.277 102.094 123.926 102.094 136.259V136.259Z" fill="#FBB041"/>
<path d="M144.766 476.277L116.02 200.003" stroke="black" stroke-width="1.5"/>
<path d="M129.242 69.2758L120.106 64.2665C120.106 64.2665 133.459 26.0351 160.867 42.9019C188.276 59.7687 159.697 79.025 159.697 79.025" stroke="black" stroke-width="1.5"/>
<path d="M128.586 62.6735C128.586 62.6735 146.721 59.7502 153.037 50.8845C153.037 50.8845 150.468 63.7214 158.081 66.8519" stroke="black" stroke-width="1.5"/>
<path d="M172.753 107.401C172.753 107.401 204.018 129.388 217.512 160.078C217.512 160.078 212.733 103.622 219.479 94.3456C223.041 89.4484 227.07 96.0965 227.07 96.0965C227.07 96.0965 244.78 88.7234 245.342 91.5345C245.904 94.3456 235.503 105.028 235.503 105.028C235.503 105.028 250.683 174.912 238.876 194.871C227.07 214.83 167.192 175.025 167.192 175.025" stroke="black" stroke-width="1.5"/>
<path d="M173.643 179.084C173.643 179.084 173.769 206.492 194.351 218.151V190.435L173.643 179.084Z" fill="black"/>
<path d="M117.85 104.378C117.85 104.378 90.0736 124.962 84.8262 145.683C84.8262 145.683 76.2053 89.6003 71.3327 90.8954C66.4601 92.1904 65.3356 96.0965 65.3356 96.0965C65.3356 96.0965 49.9681 88.0569 47.7192 90.8733C45.4703 93.6897 61.2126 109.057 61.2126 109.057C61.2126 109.057 51.6893 176.078 62.7119 185.145C85.9506 204.261 102.094 176.899 102.094 176.899" stroke="black" stroke-width="1.5"/>
<path d="M34.6471 36.9011L30.3591 45.5891L20.772 46.9818L27.7095 53.744L26.0719 63.2925L34.6471 58.7844L43.2215 63.2925L41.5838 53.744L48.5214 46.9818L38.9343 45.5891L34.6471 36.9011Z" fill="#FBB041"/>
<path d="M41.5844 53.7441L48.5218 46.9818" stroke="black" stroke-width="1.5"/>
<path d="M34.6471 36.9011L30.3591 45.5891L20.772 46.9818L27.7095 53.744L26.0719 63.2925L34.6471 58.7844L43.2215 63.2925" stroke="black" stroke-width="1.5"/>
<path d="M72.7551 36.9011L68.4679 45.5891L58.88 46.9818L65.8175 53.744L64.1799 63.2925L72.7551 58.7844L81.3303 63.2925L79.6926 53.744L86.6302 46.9818L77.0423 45.5891L72.7551 36.9011Z" fill="#FBB041"/>
<path d="M79.6927 53.7441L86.6301 46.9818" stroke="black" stroke-width="1.5"/>
<path d="M72.7551 36.9011L68.4679 45.5891L58.88 46.9818L65.8175 53.744L64.1799 63.2925L72.7551 58.7844L81.3303 63.2925" stroke="black" stroke-width="1.5"/>
<path d="M92.1704 1.25012L87.8832 9.93808L78.2961 11.3308L85.2336 18.093L83.5952 27.6415L92.1704 23.1334L100.746 27.6415L99.1079 18.093L106.045 11.3308L96.4584 9.93808L92.1704 1.25012Z" fill="#FBB041"/>
<path d="M99.1084 18.0931L106.046 11.3308" stroke="black" stroke-width="1.5"/>
<path d="M92.1704 1.25012L87.8832 9.93808L78.2961 11.3308L85.2336 18.093L83.5952 27.6415L92.1704 23.1334L100.746 27.6415" stroke="black" stroke-width="1.5"/>
<path d="M53.8857 1.25012L49.5978 9.93808L40.0107 11.3308L46.9482 18.093L45.3106 27.6415L53.8857 23.1334L62.4609 27.6415L60.8233 18.093L67.76 11.3308L58.1729 9.93808L53.8857 1.25012Z" fill="#FBB041"/>
<path d="M60.823 18.0931L67.7603 11.3308" stroke="black" stroke-width="1.5"/>
<path d="M53.8857 1.25012L49.5978 9.93808L40.0107 11.3308L46.9482 18.093L45.3106 27.6415L53.8857 23.1334L62.4609 27.6415" stroke="black" stroke-width="1.5"/>
<path d="M15.5997 1.25012L11.3125 9.93808L1.72534 11.3308L8.66211 18.093L7.02448 27.6415L15.5997 23.1334L24.1748 27.6415L22.5372 18.093L29.4747 11.3308L19.8876 9.93808L15.5997 1.25012Z" fill="#FBB041"/>
<path d="M22.5374 18.0931L29.4748 11.3308" stroke="black" stroke-width="1.5"/>
<path d="M15.5997 1.25012L11.3125 9.93808L1.72534 11.3308L8.66211 18.093L7.02448 27.6415L15.5997 23.1334L24.1748 27.6415" stroke="black" stroke-width="1.5"/>
</svg>
